<svg width="312" height="312" viewBox="0 0 312 312" fill="none" xmlns="http://www.w3.org/2000/svg">
<path d="M265.028 52.5224C296.8 62.7201 303.621 88.0433 303.06 99.4302C300.861 109.126 293.9 129.703 283.651 134.446C270.84 140.375 258.913 151.39 210.295 145.54C180.83 141.995 168.122 145.039 163.698 148.456C163.012 149.928 162.318 150.987 161.718 151.647C161.715 150.681 162.282 149.55 163.698 148.456C166.115 143.262 168.413 132.927 166.002 116.804C162.134 90.9392 156.503 75.3211 165.896 48.0642C175.289 20.8074 209.238 14.9321 217.732 15.4561C226.226 15.9802 241.981 18.8719 265.028 52.5224Z" fill="#FF44EC"/>
<path d="M265.028 52.5224C296.8 62.7201 303.621 88.0433 303.06 99.4302C300.861 109.126 293.9 129.703 283.651 134.446C270.84 140.375 258.913 151.39 210.295 145.54C171.401 140.86 161.704 147.662 161.718 151.647C164.435 148.654 169.096 137.495 166.002 116.804C162.134 90.9392 156.503 75.3211 165.896 48.0642C175.289 20.8074 209.238 14.9321 217.732 15.4561C226.226 15.9802 241.981 18.8719 265.028 52.5224Z" stroke="#FF44EC" stroke-width="5"/>
<path d="M258.355 264.967C247.337 296.161 221.592 302.339 210.096 301.529C200.347 299.136 179.707 291.791 175.143 281.549C169.439 268.745 158.573 256.703 165.575 208.752C169.819 179.691 167.027 167.054 163.673 162.602C162.201 161.892 161.146 161.181 160.492 160.573C161.469 160.591 162.6 161.178 163.673 162.602C168.868 165.11 179.262 167.614 195.61 165.591C221.836 162.345 237.746 157.126 265.082 167.027C292.418 176.927 297.595 210.634 296.875 219.023C296.155 227.411 292.88 242.927 258.355 264.967Z" fill="#6EE7B7"/>
<path d="M258.355 264.967C247.337 296.161 221.592 302.339 210.096 301.529C200.347 299.136 179.707 291.791 175.143 281.549C169.439 268.745 158.573 256.703 165.575 208.752C171.177 170.391 164.52 160.649 160.492 160.573C163.456 163.327 174.629 168.187 195.61 165.591C221.836 162.345 237.746 157.126 265.082 167.027C292.418 176.927 297.595 210.634 296.875 219.023C296.155 227.411 292.88 242.927 258.355 264.967Z" stroke="#6EE7B7" stroke-width="5"/>
<path d="M47.1305 258.051C15.4226 247.661 8.75887 222.297 9.39047 210.913C11.6496 201.231 18.7373 180.697 29.0157 176.016C41.8637 170.165 53.8583 159.222 102.439 165.367C131.882 169.091 144.609 166.124 149.054 162.733C149.748 161.266 150.449 160.211 151.053 159.554C151.05 160.52 150.476 161.648 149.054 162.733C146.604 167.912 144.242 178.234 146.553 194.371C150.261 220.258 155.795 235.91 146.233 263.11C136.672 290.309 102.687 295.979 94.1963 295.403C85.7057 294.828 69.9695 291.84 47.1305 258.051Z" fill="#FFA726"/>
<path d="M47.1305 258.051C15.4226 247.661 8.75887 222.297 9.39047 210.913C11.6496 201.231 18.7373 180.697 29.0157 176.016C41.8637 170.165 53.8583 159.222 102.439 165.367C141.303 170.282 151.042 163.54 151.053 159.554C148.317 162.531 143.587 173.661 146.553 194.371C150.261 220.258 155.795 235.91 146.233 263.11C136.672 290.309 102.687 295.979 94.1963 295.403C85.7057 294.828 69.9695 291.84 47.1305 258.051Z" stroke="#FFA726" stroke-width="5"/>
<path d="M55.9401 47.2176C67.1955 16.1074 92.987 10.1214 104.476 11.0172C114.207 13.4819 134.79 20.9806 139.276 31.2569C144.883 44.1024 155.656 56.2252 148.289 104.123C143.824 133.152 146.519 145.809 149.84 150.286C151.306 151.007 152.355 151.726 153.005 152.339C152.029 152.313 150.902 151.718 149.84 150.286C144.664 147.739 134.29 145.158 117.926 147.059C91.6765 150.109 75.7269 155.209 48.4671 145.106C21.2073 135.002 16.2873 101.257 17.0711 92.874C17.855 84.4909 21.2486 68.9996 55.9401 47.2176Z" fill="#44BCFF"/>
<path d="M55.9401 47.2176C67.1955 16.1074 92.987 10.1214 104.476 11.0172C114.207 13.4819 134.79 20.9805 139.276 31.2569C144.883 44.1023 155.656 56.2252 148.289 104.123C142.395 142.441 148.978 152.233 153.005 152.339C150.062 149.562 138.926 144.619 117.926 147.059C91.6765 150.109 75.7269 155.209 48.4671 145.106C21.2073 135.002 16.2873 101.257 17.0711 92.874C17.855 84.4909 21.2486 68.9996 55.9401 47.2176Z" stroke="#44BCFF" stroke-width="5"/>
</svg>
